<?xml version="1.0" encoding="utf-8"?>
<!DOCTYPE svg PUBLIC "-//W3C//DTD SVG 1.0//EN" "http://www.w3.org/TR/2001/REC-SVG-20010904/DTD/svg10.dtd">
<svg version="1.0" xmlns="http://www.w3.org/2000/svg" width="200px" height="200px" viewBox="0 0 200 200" preserveAspectRatio="xMidYMid meet">
 <g fill="#fffffe">
  <path d="M0 100 l0 -100 100 0 100 0 0 100 0 100 -100 0 -100 0 0 -100z m173.34 32.89 c2.27 -2.15 4.61 -4.38 5.21 -4.94 l1.11 -1.04 -6.43 -6.64 c-5.86 -6.02 -6.45 -6.68 -6.45 -7.29 0 -0.59 0.39 -1.02 4.65 -5.02 2.54 -2.40 5.29 -4.98 6.09 -5.72 0.80 -0.74 1.54 -1.46 1.62 -1.62 0.12 -0.18 -1.27 -1.74 -4.79 -5.37 -2.73 -2.81 -7.29 -7.54 -10.12 -10.49 -2.85 -2.95 -8.65 -8.96 -12.89 -13.38 -4.26 -4.39 -8.24 -8.55 -8.87 -9.22 l-1.15 -1.23 -3.52 3.38 c-8.38 8.03 -8.95 8.54 -9.59 8.54 -0.55 0 -1.33 -0.76 -7.15 -6.82 l-6.52 -6.82 -2.70 2.56 c-10.20 9.73 -10.18 9.71 -10.90 9.71 -0.64 0 -1.02 -0.35 -5.78 -5.33 -2.81 -2.91 -5.53 -5.78 -6.05 -6.33 l-0.96 -1.04 -2.34 2.27 c-1.29 1.25 -4.32 4.12 -6.70 6.41 -3.93 3.69 -4.45 4.12 -5.12 4.18 -0.72 0.06 -0.78 0 -5.39 -4.79 -2.58 -2.66 -5.29 -5.47 -6.02 -6.25 l-1.35 -1.41 -0.82 0.72 c-0.45 0.39 -4.14 3.89 -8.22 7.75 -17.46 16.54 -26.09 24.73 -27.99 26.50 -1.11 1.04 -1.97 1.97 -1.95 2.07 0.04 0.10 2.73 2.93 6 6.29 5.64 5.82 5.90 6.11 5.90 6.84 0 0.78 -0.61 1.39 -12.05 12.15 -0.78 0.72 -1.43 1.37 -1.43 1.45 0 0.06 2.66 2.89 5.92 6.29 3.26 3.40 6.29 6.58 6.72 7.07 l0.80 0.86 3.26 -3.11 c9.20 -8.81 9.71 -9.26 10.47 -9.28 0.68 0 1 0.29 6.91 6.35 3.42 3.50 6.29 6.35 6.39 6.35 0.20 0 12.66 -11.80 30.72 -29.12 3.55 -3.38 6.82 -6.48 7.25 -6.88 1.50 -1.33 1.19 -1.56 8.30 5.88 3.48 3.61 7.77 8.09 9.55 9.90 4.38 4.51 16.02 16.64 18.73 19.53 1.21 1.29 2.30 2.36 2.42 2.40 0.14 0.02 3.09 -2.68 6.56 -6.02 5.64 -5.39 6.41 -6.05 6.95 -6.05 0.35 0 0.82 0.16 1.04 0.35 0.21 0.18 2.30 2.36 4.65 4.82 2.36 2.48 5.10 5.35 6.11 6.41 l1.84 1.91 1.97 -1.91 c1.09 -1.05 3.83 -3.69 6.07 -5.84z"/>
 </g>
 <g fill="#020705">
  <path d="M163.01 139.43 c-1.09 -1.11 -4 -4.14 -6.45 -6.72 -2.46 -2.58 -4.57 -4.75 -4.71 -4.82 -0.16 -0.10 -2.52 2.03 -6.66 6 -5.35 5.12 -6.52 6.15 -6.97 6.15 -0.47 0 -0.94 -0.39 -2.64 -2.19 -2.29 -2.42 -9.51 -9.94 -14.38 -15 -1.72 -1.78 -7.07 -7.32 -11.89 -12.36 l-8.79 -9.12 -0.80 0.72 c-0.43 0.39 -3.69 3.50 -7.25 6.88 -7.73 7.40 -12.27 11.74 -22.79 21.76 -6.50 6.17 -8.05 7.56 -8.50 7.56 -0.47 0.02 -1.54 -1 -6.91 -6.48 l-6.39 -6.50 -1.23 1.17 c-0.68 0.63 -3.65 3.44 -6.60 6.25 -3.48 3.30 -5.51 5.10 -5.82 5.14 -0.35 0.06 -0.68 -0.16 -1.29 -0.78 -8.54 -8.79 -13.03 -13.67 -13.03 -14.10 0 -0.37 0.41 -0.88 1.50 -1.93 0.84 -0.78 3.93 -3.69 6.86 -6.46 2.91 -2.77 5.31 -5.08 5.31 -5.14 0 -0.20 -1.56 -1.86 -6.78 -7.25 -4.30 -4.41 -5.33 -5.57 -5.33 -6 0 -0.41 0.43 -0.94 1.99 -2.42 8.46 -8.01 21.99 -20.82 28.16 -26.68 8.34 -7.91 9.20 -8.69 9.65 -8.69 0.33 0 0.64 0.31 7.83 7.77 2.62 2.71 4.82 4.90 4.92 4.88 0.16 -0.06 4.34 -3.98 9.90 -9.32 1.97 -1.89 3.71 -3.52 3.87 -3.59 0.16 -0.10 0.43 -0.12 0.63 -0.06 0.18 0.06 1.52 1.37 2.95 2.89 1.45 1.54 4.20 4.41 6.11 6.39 l3.48 3.59 0.92 -0.84 c0.53 -0.47 3.42 -3.22 6.46 -6.13 3.03 -2.91 5.64 -5.35 5.80 -5.45 0.18 -0.08 0.45 -0.12 0.64 -0.06 0.18 0.08 3.28 3.18 6.88 6.93 l6.52 6.82 0.70 -0.59 c0.37 -0.33 3.16 -2.99 6.21 -5.90 3.05 -2.91 5.76 -5.37 6.04 -5.49 0.43 -0.18 0.59 -0.06 1.68 1.07 0.66 0.70 4.73 4.92 9.02 9.38 4.30 4.45 10.10 10.49 12.89 13.38 2.79 2.91 7.38 7.66 10.20 10.57 4.02 4.16 5.14 5.41 5.14 5.80 0 0.57 0.35 0.21 -7.77 7.85 l-4.94 4.65 0.64 0.70 c0.35 0.37 3.26 3.38 6.46 6.68 6.72 6.93 6.48 6.52 4.69 8.18 -0.63 0.57 -2.01 1.89 -3.09 2.91 -7.91 7.60 -10.21 9.75 -10.63 9.88 -0.39 0.12 -0.70 -0.12 -2.44 -1.88z m8.54 -8.44 c2.34 -2.25 4.22 -4.16 4.20 -4.24 -0.04 -0.08 -1.78 -1.95 -3.87 -4.14 -2.09 -2.19 -8.44 -8.81 -14.08 -14.71 -5.64 -5.92 -10.41 -10.86 -10.59 -11 -0.27 -0.23 -0.86 0.25 -4.73 4 -2.44 2.34 -4.82 4.59 -5.29 5 l-0.86 0.76 3.96 4.12 c2.17 2.29 8.69 9.08 14.47 15.14 l10.51 11 1.02 -0.94 c0.55 -0.51 2.91 -2.75 5.25 -5z m-30.21 1.78 c1.60 -1.52 3.91 -3.73 5.14 -4.88 l2.23 -2.13 -1.15 -1.21 c-0.64 -0.66 -3.65 -3.85 -6.74 -7.07 -3.07 -3.22 -6.70 -7.05 -8.11 -8.52 -2.11 -2.23 -9.20 -9.63 -16.74 -17.52 l-1.74 -1.84 -0.63 0.57 c-0.33 0.31 -2.50 2.36 -4.80 4.55 -2.30 2.19 -4.41 4.18 -4.67 4.41 l-0.47 0.45 0.86 0.94 c2.91 3.24 33.55 35.02 33.77 35.02 0.06 0 1.45 -1.25 3.05 -2.77z m-73.52 -4.96 c7.21 -6.91 16.50 -15.76 24.04 -22.91 l5.63 -5.35 -2.11 -2.17 c-1.17 -1.19 -3.50 -3.59 -5.18 -5.33 l-3.05 -3.14 -2.89 2.75 c-1.60 1.50 -5.68 5.41 -9.06 8.63 -18.77 17.95 -23.75 22.71 -23.96 22.97 -0.20 0.23 0.63 1.17 4.84 5.51 4.61 4.73 5.12 5.20 5.45 4.96 0.20 -0.14 3.03 -2.81 6.29 -5.92z m-25.61 -1.84 c3.91 -3.71 8.20 -7.79 9.55 -9.08 1.35 -1.29 4.80 -4.57 7.68 -7.30 l5.23 -4.96 -2.60 -2.66 c-1.43 -1.46 -3.69 -3.79 -5.02 -5.16 l-2.42 -2.50 -1.48 1.43 c-0.82 0.80 -6.23 5.92 -12.03 11.39 -12.62 11.91 -16.58 15.70 -16.66 15.90 -0.02 0.08 2.15 2.46 4.86 5.27 l4.90 5.10 0.45 -0.33 c0.23 -0.20 3.63 -3.38 7.54 -7.09z m128.59 -21 c2.05 -1.91 3.96 -3.73 4.28 -4.02 l0.59 -0.55 -3.32 -3.46 c-1.82 -1.91 -4.79 -5.02 -6.62 -6.91 -1.82 -1.88 -5.43 -5.63 -8.03 -8.30 -2.58 -2.70 -7.32 -7.60 -10.53 -10.94 -3.20 -3.32 -5.86 -6.07 -5.88 -6.11 0 -0.02 -2.17 1.99 -4.79 4.47 -2.62 2.48 -4.88 4.63 -5.04 4.77 -0.23 0.23 0.80 1.37 6.54 7.36 3.75 3.89 9.10 9.45 11.89 12.36 2.77 2.89 7.30 7.60 10.06 10.45 2.75 2.85 5.12 5.33 5.27 5.51 0.27 0.29 0.35 0.27 1.07 -0.41 0.43 -0.39 2.46 -2.30 4.49 -4.22z m-128.71 -4.59 c2.91 -2.75 8.18 -7.77 11.74 -11.15 3.55 -3.38 8.85 -8.42 11.78 -11.19 l5.31 -5.06 -1.62 -1.68 c-0.90 -0.92 -3.11 -3.20 -4.90 -5.06 l-3.28 -3.38 -1.41 1.33 c-2.13 2.01 -11.37 10.76 -16.23 15.37 -2.38 2.27 -7.29 6.91 -10.92 10.33 -3.63 3.44 -6.56 6.31 -6.54 6.39 0.04 0.10 2.21 2.40 4.84 5.14 l4.79 4.98 0.59 -0.49 c0.31 -0.27 2.97 -2.75 5.86 -5.53z m98.01 -3.01 c2.13 -2.03 3.83 -3.77 3.81 -3.85 -0.08 -0.18 -14.10 -14.79 -21.84 -22.73 -1.78 -1.82 -4.22 -4.36 -5.41 -5.61 l-2.19 -2.30 -2.79 2.70 c-1.54 1.46 -3.89 3.67 -5.20 4.90 -1.31 1.21 -2.38 2.29 -2.38 2.38 0 0.16 8.54 9.12 20.10 21.13 3.50 3.63 7.01 7.30 7.81 8.16 l1.45 1.56 1.39 -1.33 c0.76 -0.74 3.13 -2.99 5.25 -5.02z m-60.31 -7.25 c4.28 -4.08 10.02 -9.57 12.77 -12.17 2.75 -2.62 5.06 -4.88 5.16 -5.02 0.10 -0.20 -1.31 -1.78 -4.69 -5.25 -2.66 -2.75 -4.90 -5 -4.98 -5 -0.10 0 -2.73 2.44 -5.88 5.43 -3.14 2.97 -9.22 8.75 -13.50 12.83 -4.30 4.08 -8.50 8.07 -9.34 8.87 -0.84 0.80 -1.50 1.52 -1.48 1.60 0.04 0.10 2.25 2.44 4.92 5.23 l4.88 5.06 2.19 -2.09 c1.19 -1.13 5.68 -5.41 9.94 -9.49z m27.89 -0.18 c1.89 -1.82 3.46 -3.38 3.46 -3.46 0 -0.20 -10 -10.63 -10.20 -10.63 -0.08 0 -2.13 1.89 -4.57 4.20 -2.42 2.30 -4.82 4.57 -5.33 5.02 l-0.90 0.80 2.15 2.23 c1.17 1.21 3.54 3.63 5.25 5.37 l3.13 3.18 1.76 -1.72 c0.98 -0.94 3.34 -3.20 5.25 -5z"/>
 </g>
 <g fill="#94b282">
  <path d="M132.87 131.31 c-5.37 -5.55 -26.91 -27.99 -29.16 -30.39 l-1.23 -1.33 0.47 -0.47 c3.73 -3.65 11.07 -10.45 11.27 -10.45 0.16 0 1.15 0.94 2.25 2.09 1.09 1.15 4.77 5 8.14 8.54 3.38 3.54 7.29 7.62 8.67 9.08 1.41 1.46 5.04 5.29 8.11 8.52 3.07 3.22 6.25 6.54 7.05 7.38 l1.46 1.54 -1.19 1.09 c-0.66 0.61 -3.24 3.05 -5.72 5.41 -2.48 2.36 -4.59 4.32 -4.69 4.36 -0.08 0.02 -2.52 -2.38 -5.43 -5.37z"/>
  <path d="M55.49 129.36 l-5.66 -5.82 0.53 -0.57 c0.49 -0.51 8.96 -8.63 24.26 -23.26 11.27 -10.76 12.40 -11.82 12.62 -11.78 0.23 0.06 10.80 10.96 11.07 11.41 0.08 0.16 0.10 0.35 0.04 0.47 -0.06 0.10 -2.68 2.62 -5.82 5.61 -7.13 6.76 -16.43 15.63 -24.06 22.91 -3.22 3.09 -6.17 5.88 -6.56 6.23 l-0.72 0.61 -5.68 -5.80z"/>
 </g>
 <g fill="#5c7661">
  <path d="M163.14 135.88 c-1.17 -1.21 -5.08 -5.25 -8.67 -9.02 -3.59 -3.75 -9.36 -9.80 -12.83 -13.42 -3.46 -3.61 -6.29 -6.66 -6.29 -6.76 0 -0.12 0.47 -0.63 1.05 -1.15 0.57 -0.51 3.13 -2.93 5.66 -5.37 2.54 -2.46 4.75 -4.45 4.86 -4.45 0.31 0 3.38 3.11 13.44 13.67 4.55 4.79 10.18 10.66 12.48 13.07 l4.20 4.38 -3.61 3.52 c-1.99 1.91 -4.63 4.45 -5.88 5.63 l-2.25 2.11 -2.17 -2.19z"/>
  <path d="M28.73 128.87 c-3.03 -3.13 -5.49 -5.74 -5.49 -5.80 0 -0.25 31.15 -29.71 31.41 -29.71 0.10 0 1.37 1.21 2.79 2.68 1.45 1.48 3.87 3.96 5.41 5.53 1.52 1.56 2.77 2.95 2.77 3.07 0 0.12 -3.40 3.46 -7.56 7.40 -13.32 12.70 -21.93 20.86 -22.91 21.72 l-0.94 0.82 -5.49 -5.70z"/>
  <path d="M99.90 97.17 c-0.31 -0.35 -2.87 -2.97 -5.66 -5.84 -2.79 -2.87 -5.10 -5.29 -5.14 -5.35 -0.02 -0.08 2.52 -2.56 5.64 -5.51 4.59 -4.34 5.78 -5.37 6.21 -5.37 0.45 0 1.45 0.94 5.94 5.64 2.97 3.13 5.41 5.72 5.41 5.80 0 0.14 -10.59 10.29 -11.37 10.90 -0.43 0.35 -0.47 0.33 -1.04 -0.27z"/>
 </g>
 <g fill="#b7daae">
  <path d="M164.84 110.41 c-0.25 -0.29 -2.71 -2.87 -5.47 -5.72 -2.75 -2.85 -8.20 -8.52 -12.13 -12.60 -3.91 -4.08 -9.38 -9.79 -12.17 -12.66 l-5.04 -5.25 0.55 -0.55 c4.16 -4.04 10.57 -9.96 10.72 -9.92 0.20 0.06 4.24 4.22 16.97 17.44 2.60 2.68 6.15 6.39 7.93 8.20 4.04 4.20 10 10.45 10.31 10.86 0.20 0.25 -0.57 1.05 -5.25 5.47 -3.01 2.83 -5.59 5.18 -5.70 5.21 -0.14 0.02 -0.47 -0.20 -0.72 -0.49z"/>
  <path d="M30.27 102.01 c-2.95 -3.07 -5.37 -5.68 -5.37 -5.80 0 -0.12 2.42 -2.50 5.37 -5.27 2.95 -2.79 8.63 -8.16 12.60 -11.93 3.98 -3.77 8.95 -8.48 11.04 -10.47 2.09 -1.97 4.53 -4.30 5.43 -5.14 1.31 -1.27 1.68 -1.50 1.97 -1.37 0.61 0.29 10.47 10.64 10.47 11 0 0.18 -1.89 2.11 -4.22 4.32 -5.27 5 -21.93 20.82 -26.64 25.31 -1.93 1.84 -3.91 3.69 -4.39 4.14 l-0.90 0.78 -5.35 -5.57z"/>
 </g>
 <g fill="#334336">
  <path d="M131.62 102.95 c-0.90 -0.96 -4.51 -4.73 -8.01 -8.36 -11.19 -11.62 -20.68 -21.60 -20.68 -21.74 0 -0.08 1.25 -1.33 2.77 -2.75 1.52 -1.45 4.10 -3.87 5.70 -5.39 1.58 -1.54 2.97 -2.79 3.07 -2.79 0.10 0 1.25 1.11 2.58 2.48 1.31 1.39 3.83 3.98 5.61 5.82 8.67 8.91 22.15 22.95 22.32 23.26 0.10 0.16 -1.64 1.95 -5.55 5.68 -3.13 2.99 -5.78 5.45 -5.92 5.49 -0.16 0.04 -1 -0.72 -1.89 -1.70z"/>
  <path d="M62.11 97.15 c-2.95 -3.07 -5.39 -5.64 -5.43 -5.72 -0.02 -0.08 0.76 -0.94 1.76 -1.89 1.68 -1.60 15 -14.26 25.21 -23.95 2.34 -2.25 4.34 -4.06 4.41 -4.06 0.10 0 2.60 2.52 5.57 5.59 l5.39 5.59 -0.51 0.63 c-0.29 0.33 -2.73 2.71 -5.45 5.29 -2.71 2.58 -8.42 8.03 -12.70 12.11 -10.16 9.71 -12.60 12.01 -12.75 12.01 -0.08 0 -2.56 -2.52 -5.51 -5.59z"/>
 </g>
</svg>